<?xml version="1.0" encoding="UTF-8"?>
<svg id="Layer_2" data-name="Layer 2" xmlns="http://www.w3.org/2000/svg" viewBox="0 0 568 300.07">
  <defs>
    <style>
      .cls-1 {
        fill: #fff;
        stroke: #000;
        stroke-miterlimit: 10;
      }
    </style>
  </defs>
  <g id="a1-outline">
    <g>
      <path class="cls-1" d="m200.1,91.42c-49.81-105.41-170.98.03-170.98.03-62.33,46.96-9.5,90.44,32.43,114.13,25.68,14.52,58.12,9.02,76.9-14.01,3.54-4.36,4.21-6.39,4.21-6.39-15.32,85.92,107.25,105.45,107.25,105.45,80.44,7.81,80.44-82.02,80.44-82.02,31.26,70.15,123.79,15.36,156.73-7.13,10.91-7.45,19.24-18.47,22.47-31.44,14.57-58.52-79.61-86.41-79.61-86.41-15.32-121.07-168.52-74.2-168.52-74.2-71.69,30.77-61.61,80.5-61.29,81.99Z"/>
      <path class="cls-1" d="m533,222.91c-17.87-34.53-32.23-10.05-38.97,1.77-.56.98-.93,2.1-1.07,3.27-.75,6.11.29,8.93.51,12.76,1.03,18.07,19.07,6.93,31.91.86,6.16-2.91,11.13-11.9,7.63-18.66Z"/>
      <path class="cls-1" d="m557.9,262.1c-11.95-19.32-21.56-5.62-26.07.99-.37.55-.62,1.17-.72,1.83-.5,3.42.2,4.99.34,7.14.69,10.11,12.76,3.87,21.35.48,4.12-1.63,7.44-6.66,5.1-10.44Z"/>
      <path class="cls-1" d="m567.16,293.85c-5.19-7.15-9.37-2.08-11.33.37-.16.2-.27.43-.31.68-.22,1.26.08,1.85.15,2.64.3,3.74,5.54,1.43,9.28.18,1.79-.6,3.23-2.46,2.22-3.86Z"/>
    </g>
  </g>
</svg>